<svg width="12" height="20" viewBox="0 0 12 20" fill="none" xmlns="http://www.w3.org/2000/svg">
<path fill-rule="evenodd" clip-rule="evenodd" d="M0.857434 0.348903C0.927903 0.279866 1.0113 0.225409 1.10285 0.188653C1.19439 0.151896 1.29229 0.133561 1.39094 0.134698C1.48958 0.135835 1.58703 0.156421 1.67771 0.195279C1.76839 0.234136 1.85051 0.290501 1.91936 0.361144L10.815 9.46428C10.8841 9.53475 10.9385 9.61815 10.9753 9.70969C11.012 9.80124 11.0304 9.89914 11.0292 9.99778C11.0281 10.0964 11.0075 10.1939 10.9687 10.2846C10.9298 10.3752 10.8734 10.4574 10.8028 10.5262L1.69966 19.4219C1.55721 19.5611 1.36531 19.638 1.16616 19.6357C0.967005 19.6334 0.776923 19.5521 0.637726 19.4096C0.498528 19.2672 0.421617 19.0753 0.423913 18.8761C0.426209 18.677 0.507523 18.4869 0.649966 18.3477L9.21752 9.9769L0.845194 1.41083C0.776157 1.34036 0.7217 1.25697 0.684943 1.16542C0.648186 1.07387 0.629851 0.975973 0.630988 0.877328C0.632126 0.778684 0.652712 0.681233 0.691569 0.590557C0.730426 0.499881 0.786791 0.417762 0.857434 0.348903Z" fill="white"/>
</svg>
