<svg width="153" height="33" viewBox="0 0 153 33" fill="none" xmlns="http://www.w3.org/2000/svg">
<g clip-path="url(#clip0_450_4775)">
<path d="M54.1893 4.28998H50.5937C50.2945 4.28998 50.0517 4.53061 50.0517 4.82714V16.4259C50.0517 16.5766 49.8702 16.6519 49.7622 16.5498L37.391 4.73964C37.0451 4.4188 36.4786 4.66186 36.4786 5.13096V22.4221C36.4786 22.7186 36.7214 22.9593 37.0206 22.9593H40.6162C40.9155 22.9593 41.1583 22.7186 41.1583 22.4221V11.1272C41.1583 10.9765 41.3398 10.8987 41.4501 11.0032L53.8214 22.8134C54.1672 23.1343 54.7338 22.8912 54.7338 22.4221V4.82714C54.7338 4.53061 54.491 4.28998 54.1918 4.28998" fill="#009E9C"/>
<path d="M87.2464 10.68C86.0789 10.68 84.5411 11.0591 83.1995 11.8029C83.0842 11.8685 82.9419 11.7883 82.9419 11.6546V4.8247C82.9419 4.52816 82.6991 4.28754 82.3999 4.28754H78.8484C78.5492 4.28754 78.3064 4.52816 78.3064 4.8247V22.4197C78.3064 22.7162 78.5492 22.9568 78.8484 22.9568H82.3999C82.6991 22.9568 82.9419 22.7162 82.9419 22.4197V13.6793C82.9419 13.5724 82.991 13.4703 83.0744 13.4071C85.2425 11.7348 88.2741 11.8685 88.2741 14.9529V22.4221C88.2741 22.7186 88.5169 22.9593 88.8161 22.9593H92.2645C92.5638 22.9593 92.8066 22.7186 92.8066 22.4221V15.2008C92.8066 11.2098 89.6009 10.68 87.2488 10.68" fill="#009E9C"/>
<path d="M60.9243 10.7067H58.1454C57.8462 10.7067 57.6034 10.9473 57.6034 11.2439V22.4245C57.6034 22.7211 57.8462 22.9617 58.1454 22.9617H60.9243C61.2235 22.9617 61.4664 22.7211 61.4664 22.4245V11.2439C61.4664 10.9473 61.2235 10.7067 60.9243 10.7067Z" fill="#009E9C"/>
<path d="M98.9971 10.7067H96.2182C95.919 10.7067 95.6762 10.9474 95.6762 11.2439V22.4246C95.6762 22.7211 95.919 22.9617 96.2182 22.9617H98.9971C99.2963 22.9617 99.5392 22.7211 99.5392 22.4246V11.2439C99.5392 10.9474 99.2963 10.7067 98.9971 10.7067Z" fill="#009E9C"/>
<path d="M99.002 6.73758H96.2231C95.9239 6.73758 95.6811 6.97821 95.6811 7.27474V9.04663C95.6811 9.34316 95.9239 9.58379 96.2231 9.58379H99.002C99.3012 9.58379 99.5441 9.34316 99.5441 9.04663V7.27474C99.5441 6.97821 99.3012 6.73758 99.002 6.73758Z" fill="#009E9C"/>
<path d="M120.039 22.8766L109.345 13.8106C109.07 13.5772 109.205 13.1276 109.563 13.0862C115.477 12.3814 115.141 5.46394 108.555 5.46394H107.471C107.28 5.46394 107.123 5.61707 107.123 5.80908V22.4245C107.123 22.7211 106.88 22.9617 106.581 22.9617H102.956C102.657 22.9617 102.414 22.7211 102.414 22.4245V4.83199C102.414 4.53546 102.657 4.29483 102.956 4.29483H110.836C118.457 4.29483 118.405 8.0282 118.405 8.96155C118.405 9.89489 117.48 13.2831 112.933 13.4946C112.776 13.5019 112.71 13.6939 112.828 13.7935L119.85 19.763C119.963 19.8578 120.134 19.7801 120.134 19.6342V11.2317C120.134 10.9352 120.377 10.6946 120.676 10.6946H123.448C123.747 10.6946 123.99 10.9352 123.99 11.2317V22.4148C123.99 22.7089 123.752 22.9495 123.455 22.952C122.553 22.9593 120.777 22.9738 120.272 22.9666C120.186 22.9666 120.105 22.935 120.039 22.8791" fill="#009E9C"/>
<path d="M76.1431 20.8835L75.6624 20.6113C75.4834 20.5117 75.2577 20.553 75.1302 20.711C74.3478 21.6856 73.2392 22.2933 72.0079 22.2933C69.6387 22.2933 68.3069 20.4703 68.118 17.5828C68.1033 17.3665 68.1008 17.155 68.1057 16.9484C68.1057 16.9484 68.1057 16.9436 68.1057 16.9387C68.1057 16.9339 68.1057 16.9339 68.1057 16.9314C68.1008 16.7248 68.1033 16.5134 68.118 16.297C68.3044 13.4119 69.6362 11.5866 72.0079 11.5866C73.2392 11.5866 74.3478 12.1942 75.1302 13.1689C75.2577 13.3293 75.4834 13.3706 75.6624 13.2685L76.1431 12.9963C76.4056 12.848 76.4276 12.4762 76.1824 12.2987C74.7696 11.29 73.4305 10.7772 71.51 10.7772C66.1608 10.7772 63.4898 13.5335 63.4898 16.9314C63.4898 16.9314 63.4898 16.9363 63.4898 16.9387C63.4898 16.9387 63.4898 16.9436 63.4898 16.946C63.4898 20.344 66.1608 23.1002 71.51 23.1002C73.428 23.1002 74.7672 22.5874 76.1824 21.5787C76.4276 21.4037 76.408 21.0318 76.1431 20.8811" fill="#009E9C"/>
<path d="M11.1768 11.6303C13.0703 15.8401 12.4032 20.2224 9.68805 21.4207C6.97295 22.619 3.23998 20.1787 1.34652 15.9714C-0.544488 11.764 0.120186 7.37925 2.83529 6.18097C5.5504 4.9827 9.28336 7.423 11.1768 11.6303Z" fill="#009E9C"/>
<path d="M27.5778 16.472C27.541 9.37475 24.176 3.21323 18.3288 0L8.52795 0.0510422C14.3727 3.26427 18.346 9.42336 18.3828 16.5182C18.395 18.7957 18.0002 20.9808 17.2668 23.0079L25.5495 33L35.3504 32.949L26.4619 22.9593C27.1952 20.9322 27.5901 18.7471 27.5778 16.4696" fill="#009E9C"/>
<path d="M147.442 10.6897C145.524 10.6897 144.038 11.205 142.517 11.9147C142.211 12.0581 142.11 12.4421 142.306 12.7168L142.316 12.7314C142.463 12.938 142.738 13.0133 142.971 12.9088C145.164 11.9366 148.357 11.4577 148.357 14.0269C148.357 15.9835 148.36 18.645 148.362 20.5554C148.362 20.6599 148.318 20.7572 148.237 20.8228C147.516 21.394 146.513 21.7464 145.635 21.7464C143.815 21.7464 142.699 20.8544 142.699 19.4568C142.699 18.0592 143.493 16.9776 144.916 16.139C145.326 15.896 145.068 15.2738 144.605 15.3783C141.507 16.0807 139.586 17.838 139.586 19.8433C139.586 21.8485 141.171 23.0273 144.492 23.0273C146.15 23.0273 147.101 22.7113 148.127 22.2617C148.239 22.2106 148.367 22.2957 148.367 22.4197V22.4318C148.367 22.7284 148.61 22.9665 148.907 22.9665H152.46C152.76 22.9665 153.002 22.7259 153.002 22.4294V15.2081C153.002 11.2171 149.794 10.6873 147.445 10.6873" fill="#009E9C"/>
<path d="M138.676 20.8933L138.196 20.6211C138.017 20.5214 137.791 20.5627 137.663 20.7207C136.881 21.6954 135.772 22.303 134.541 22.303C132.172 22.303 130.84 20.4801 130.651 17.5926C130.637 17.3762 130.634 17.1648 130.639 16.9582V16.9412C130.634 16.7346 130.637 16.5231 130.651 16.3068C130.838 13.4217 132.169 11.5963 134.541 11.5963C135.772 11.5963 136.881 12.204 137.663 13.1786C137.791 13.339 138.017 13.3804 138.196 13.2783L138.676 13.006C138.939 12.8578 138.961 12.4859 138.716 12.3085C137.303 11.2998 135.964 10.7869 134.043 10.7869C128.694 10.7869 126.023 13.5432 126.023 16.9412C126.023 16.9412 126.023 16.946 126.023 16.9484C126.023 16.9509 126.023 16.9533 126.023 16.9557C126.023 20.3537 128.694 23.11 134.043 23.11C135.961 23.11 137.3 22.5971 138.716 21.5884C138.961 21.4134 138.941 21.0415 138.676 20.8909" fill="#009E9C"/>
</g>
<defs>
<clipPath id="clip0_450_4775">
<rect width="153" height="33" fill="white"/>
</clipPath>
</defs>
</svg>
